<?xml version="1.0" encoding="UTF-8" standalone="no" ?>
<!DOCTYPE svg PUBLIC "-//W3C//DTD SVG 1.1//EN" "http://www.w3.org/Graphics/SVG/1.1/DTD/svg11.dtd">
<svg xmlns="http://www.w3.org/2000/svg" xmlns:xlink="http://www.w3.org/1999/xlink" version="1.1" width="1080" height="1080" viewBox="0 0 1080 1080" xml:space="preserve">
<desc>Created with Fabric.js 4.2.0</desc>
<defs>
</defs>
<g transform="matrix(1 0 0 1 540 540)" id="917cf579-7a70-42d9-9bd7-c003f9e429d5"  >
<rect style="stroke: none; stroke-width: 1; stroke-dasharray: none; stroke-linecap: butt; stroke-dashoffset: 0; stroke-linejoin: miter; stroke-miterlimit: 4; fill: rgb(255,255,255); fill-rule: nonzero; opacity: 1;" vector-effect="non-scaling-stroke"  x="-540" y="-540" rx="0" ry="0" width="1080" height="1080" />
</g>
<g transform="matrix(1 0 0 1 540 540)" id="d2bee08e-617b-44f1-ac67-a5dbae4af66f"  >
</g>
<g transform="matrix(0.84 0 0 0.84 540 540)" id="f8aef502-efe1-498c-827d-b674df12a6b4"  >
<path style="stroke: rgb(0,0,0); stroke-width: 0; stroke-dasharray: none; stroke-linecap: butt; stroke-dashoffset: 0; stroke-linejoin: miter; stroke-miterlimit: 4; fill: rgb(255,255,255); fill-rule: nonzero; opacity: 1;" vector-effect="non-scaling-stroke"  transform=" translate(-288, -272)" d="M 322.6 192 C 302.4 192 215.8 194 160 278 L 160 192 C 160 139 117 96 64 96 C 46.38 96 32 110.4 32 128 C 32 145.6 46.38 160 64 160 C 81.62 160 96 174.38 96 192 L 96 448 C 96 483.25 124.75 512 160 512 L 336 512 C 344.875 512 352 504.875 352 496.9 L 352 480 C 352 462.38 337.62 448 320 448 L 288 448 L 416 352 L 416 496 C 416 504.875 423.125 512 432 512 L 464 512 C 472.875 512 480 504.875 480 496 L 480 289.9 C 469.75 292.525 459.12 294.4 448 294.4 C 386.2 294.4 334.5 250.4 322.6 192 z M 480 96 L 416 96 L 352 32 L 352 166.4 C 352 219.4 395 261.5 448 261.5 C 501 261.5 544 219.4 544 166.4 L 544 32 L 480 96 z M 408 176 C 399.125 176 392 168.875 392 160 C 392 151.125 399.125 144 408 144 C 416.875 144 424 151.125 424 160 C 424 168.875 416.9 176 408 176 z M 488 176 C 479.125 176 472 168.875 472 160 C 472 151.125 479.125 144 488 144 C 496.875 144 504 151.125 504 160 C 504 168.875 496.9 176 488 176 z" stroke-linecap="round" />
</g>
</svg>